<svg width="100" height="100" viewBox="0 0 100 100" fill="none" xmlns="http://www.w3.org/2000/svg">
<circle cx="50" cy="50" r="50" fill="#1199FA" fill-opacity="0.1"/>
<path d="M46.6396 64.4342L38.5641 68.2701C38.2154 68.4357 37.9932 68.7873 37.9932 69.1734V71.2433C37.9932 71.6756 38.3174 71.9999 38.7497 71.9999H60.9063C61.3386 71.9999 61.6629 71.6756 61.6629 71.2433V69.1734C61.6629 68.7873 61.4407 68.4357 61.0919 68.2701L53.0164 64.4342" stroke="#129DFF" stroke-linecap="round" stroke-linejoin="round"/>
<path d="M53.1243 64.4343C56.3667 61.9484 56.3667 57.5171 56.3667 57.5171V53.6262C56.3667 50.3838 52.6919 48.2222 49.8818 48.2222C47.0717 48.2222 43.397 50.3838 43.397 53.6262V57.5171C43.397 57.5171 43.397 61.9484 46.6394 64.4343" stroke="#129DFF" stroke-linecap="round" stroke-linejoin="round"/>
<path d="M48.1963 36.2947L44.3434 38.1248C43.9947 38.2904 43.7725 38.642 43.7725 39.0281V39.7784C43.7725 39.9996 43.9384 40.1655 44.1595 40.1655H55.4956C55.7168 40.1655 55.8827 39.9996 55.8827 39.7784V39.0281C55.8827 38.642 55.6605 38.2904 55.3118 38.1248L51.4589 36.2947" stroke="#129DFF" stroke-linecap="round" stroke-linejoin="round"/>
<path d="M51.5144 36.2947C53.1733 35.0228 53.1733 32.7556 53.1733 32.7556V30.7649C53.1733 29.106 51.2932 28 49.8555 28C48.4177 28 46.5376 29.106 46.5376 30.7649V32.7556C46.5376 32.7556 46.5376 35.0228 48.1965 36.2947" stroke="#129DFF" stroke-linecap="round" stroke-linejoin="round"/>
<path d="M26.3768 46.9091L21.1295 49.4015C20.7808 49.5671 20.5586 49.9187 20.5586 50.3048V51.4909C20.5586 51.7818 20.7768 52 21.0677 52H35.9768C36.2677 52 36.4859 51.7818 36.4859 51.4909V50.3048C36.4859 49.9187 36.2636 49.5671 35.9149 49.4015L30.6677 46.9091" stroke="#129DFF" stroke-linecap="round" stroke-linejoin="round"/>
<path d="M30.7403 46.9091C32.9221 45.2364 32.9221 42.2545 32.9221 42.2545V39.6364C32.9221 37.4545 30.4494 36 28.5585 36C26.6675 36 24.1948 37.4545 24.1948 39.6364V42.2545C24.1948 42.2545 24.1948 45.2364 26.3766 46.9091" stroke="#129DFF" stroke-linecap="round" stroke-linejoin="round"/>
<path d="M69.0433 46.9091L63.796 49.4015C63.4473 49.5671 63.2251 49.9187 63.2251 50.3048V51.4909C63.2251 51.7818 63.4433 52 63.7342 52H78.6433C78.9342 52 79.1524 51.7818 79.1524 51.4909V50.3048C79.1524 49.9187 78.9301 49.5671 78.5814 49.4015L73.3342 46.9091" stroke="#129DFF" stroke-linecap="round" stroke-linejoin="round"/>
<path d="M73.4068 46.9091C75.5886 45.2364 75.5886 42.2545 75.5886 42.2545V39.6364C75.5886 37.4545 73.1159 36 71.225 36C69.3341 36 66.8613 37.4545 66.8613 39.6364V42.2545C66.8613 42.2545 66.8613 45.2364 69.0431 46.9091" stroke="#129DFF" stroke-linecap="round" stroke-linejoin="round"/>
</svg>
