<svg width="100" height="100" viewBox="0 0 100 100" fill="none" xmlns="http://www.w3.org/2000/svg">
<circle cx="50" cy="50" r="50" fill="#1199FA" fill-opacity="0.1"/>
<path fill-rule="evenodd" clip-rule="evenodd" d="M50.3634 18L68.528 49.9531L50.3616 61.4002L31.7322 49.9548L50.3634 18ZM33.0521 49.7338L49.9134 60.0929V42.2399L33.0521 49.7338ZM33.6488 48.4132L49.9134 20.5175L49.9134 41.2168L49.9014 41.1898L33.6488 48.4132ZM50.7927 20.5342L50.7927 41.2778L66.5715 48.2906L50.7927 20.5342ZM50.7927 60.0893V42.3332L67.3166 49.6772L50.7927 60.0893ZM69.5724 55.0436L50.5443 82L31 55.0605L50.5357 66.1483L69.5724 55.0436ZM34.3933 58.0954L50.0567 79.6855L50.0567 66.9855L34.3933 58.0954ZM50.9359 67.0314L50.936 79.7728L66.2257 58.1124L50.9359 67.0314Z" fill="#129DFF"/>
</svg>
