<svg width="101" height="100" viewBox="0 0 101 100" fill="none" xmlns="http://www.w3.org/2000/svg">
<circle cx="50.5" cy="50" r="50" fill="#1199FA" fill-opacity="0.1"/>
<path fill-rule="evenodd" clip-rule="evenodd" d="M27.6884 35.6282L26.8979 35.8674L26.9835 36.689L27.0622 37.4436L27.2801 39.6941C26.8012 40.1226 26.3583 40.6065 25.9506 41.143L23.6553 41.0569L23.6444 41.0565L23.6336 41.0564L22.8779 41.0444L22.0717 41.0317L21.8883 41.8169L20.7094 46.8664L20.5231 47.6644L21.2688 48.0039L23.9503 49.2248C24.0036 49.6286 24.0688 49.9799 24.1527 50.2569C24.2365 50.534 24.3771 50.8624 24.5566 51.228L23.0022 53.731L22.5699 54.4271L23.1675 54.9878L26.9487 58.536L27.5367 59.0878L28.2006 58.6301L28.8228 58.2011L28.8317 58.1949L28.8405 58.1886L30.7029 56.8441C31.3393 57.0644 31.9758 57.2214 32.6117 57.3124L34.0351 59.9829L34.4213 60.7075L35.2072 60.4696L40.1674 58.9683L40.9534 58.7304L40.8729 57.9133L40.5766 54.9017C41.0552 54.4733 41.4978 53.9897 41.9053 53.4534L44.2006 53.5395L44.2115 53.5399L44.2223 53.5401L44.978 53.5521L45.7842 53.5648L45.9676 52.7795L47.1465 47.73L47.3328 46.9321L46.5871 46.5926L43.9056 45.3717C43.8523 44.9679 43.7871 44.6166 43.7032 44.3395C43.6194 44.0625 43.4788 43.734 43.2993 43.3684L44.8537 40.8655L45.286 40.1694L44.6884 39.6087L40.9072 36.0605L40.3192 35.5087L39.6553 35.9664L39.0331 36.3954L39.0242 36.4015L39.0154 36.4079L37.153 37.7524C36.5166 37.5321 35.8801 37.3751 35.2442 37.2841L33.8208 34.6136L33.4346 33.889L32.6487 34.1268L27.6884 35.6282ZM28.326 40.1198L28.0572 37.3435L27.9781 36.5853L32.9384 35.084L34.6089 38.2182C35.4934 38.2914 36.3921 38.5107 37.3048 38.8762L39.6007 37.2187L40.2229 36.7897L44.0042 40.3379L42.1637 43.3014L42.2664 43.5411C42.5084 44.0093 42.6683 44.372 42.7461 44.6292C42.824 44.8864 42.892 45.2769 42.9503 45.8008L42.9978 46.0571L46.1727 47.5027L44.9937 52.5522L44.2381 52.5402L41.4084 52.4341C40.8515 53.2444 40.2253 53.9252 39.5299 54.4767L39.8778 58.0112L34.9175 59.5125L33.247 56.3783C32.3625 56.3051 31.4638 56.0858 30.5511 55.7203L28.2552 57.3778L27.633 57.8068L23.8517 54.2586L25.6922 51.295L25.5895 51.0554C25.3475 50.5871 25.1876 50.2244 25.1098 49.9672C25.0319 49.71 24.9639 49.3195 24.9056 48.7957L24.8581 48.5394L21.6832 47.0938L22.8621 42.0443L23.6178 42.0562L26.4475 42.1624C27.0044 41.3521 27.6306 40.6712 28.326 40.1198ZM37.6054 46.2493C38.2315 48.3182 37.0621 50.5029 34.9933 51.129C32.9244 51.7552 30.7397 50.5857 30.1136 48.5169C29.4874 46.4481 30.6569 44.2634 32.7257 43.6372C34.7945 43.0111 36.9792 44.1805 37.6054 46.2493ZM38.5625 45.9597C39.3487 48.5571 37.8804 51.3 35.2829 52.0861C32.6855 52.8723 29.9426 51.404 29.1565 48.8066C28.3703 46.2092 29.8386 43.4663 32.436 42.6801C35.0334 41.8939 37.7763 43.3622 38.5625 45.9597Z" fill="#129DFF"/>
<path fill-rule="evenodd" clip-rule="evenodd" d="M52.466 51.6113L51.664 51.8092L51.7069 52.6341L51.7463 53.3917L51.847 55.6505C51.3465 56.0536 50.8791 56.5138 50.4441 57.0284L48.1563 56.8233L48.1455 56.8223L48.1347 56.8216L47.3807 56.7704L46.5762 56.7158L46.3523 57.4905L44.9127 62.4719L44.6852 63.2591L45.4123 63.6369L48.0268 64.9954C48.059 65.4014 48.1059 65.7556 48.1752 66.0367C48.2446 66.3177 48.3679 66.653 48.5282 67.0274L46.8459 69.4463L46.3781 70.119L46.9457 70.71L50.5375 74.4498L51.0961 75.0313L51.7829 74.6087L52.4265 74.2126L52.4357 74.207L52.4449 74.2011L54.3745 72.9551C54.9987 73.2081 55.6262 73.398 56.2564 73.5219L57.5392 76.2627L57.8873 77.0064L58.6845 76.8097L63.716 75.568L64.5132 75.3713L64.4753 74.551L64.3358 71.5281C64.836 71.1252 65.3031 70.6652 65.7379 70.1508L68.0257 70.356L68.0365 70.357L68.0473 70.3577L68.8013 70.4089L69.6058 70.4635L69.8297 69.6888L71.2693 64.7073L71.4968 63.9201L70.7697 63.5423L68.1552 62.1838C68.1229 61.7778 68.0761 61.4236 68.0067 61.1426C67.9374 60.8616 67.8141 60.5262 67.6538 60.1518L69.336 57.733L69.8039 57.0603L69.2363 56.4693L65.6444 52.7295L65.0859 52.1479L64.3991 52.5705L63.7555 52.9666L63.7462 52.9723L63.7371 52.9782L61.8075 54.2242C61.1833 53.9711 60.5558 53.7813 59.9256 53.6573L58.6428 50.9165L58.2947 50.1728L57.4975 50.3696L52.466 51.6113ZM52.8694 56.13L52.7452 53.3434L52.7056 52.5821L57.7371 51.3404L59.2426 54.5572C60.1221 54.6762 61.0081 54.9419 61.9007 55.3543L64.2796 53.8183L64.9232 53.4222L68.5151 57.162L66.5232 60.0259L66.6133 60.2706C66.8306 60.7508 66.9715 61.1213 67.0359 61.3822C67.1003 61.6431 67.1479 62.0366 67.1789 62.5627L67.2131 62.8212L70.3086 64.4297L68.869 69.4112L68.115 69.36L65.2946 69.107C64.6964 69.8873 64.0357 70.5347 63.3126 71.0493L63.4764 74.5971L58.4449 75.8388L56.9394 72.6221C56.0599 72.503 55.1738 72.2373 54.2813 71.825L51.9024 73.361L51.2588 73.7571L47.6669 70.0173L49.6587 67.1533L49.5687 66.9086C49.3514 66.4285 49.2105 66.058 49.1461 65.7971C49.0817 65.5362 49.034 65.1427 49.003 64.6165L48.9689 64.358L45.8734 62.7496L47.313 57.7681L48.067 57.8193L50.8873 58.0722C51.4856 57.2919 52.1463 56.6445 52.8694 56.13ZM61.818 62.7331C62.3359 64.8316 61.0545 66.9527 58.956 67.4705C56.8574 67.9884 54.7364 66.7071 54.2185 64.6085C53.7006 62.51 54.982 60.389 57.0805 59.8711C59.1791 59.3532 61.3001 60.6346 61.818 62.7331ZM62.7889 62.4935C63.4391 65.1283 61.8303 67.7912 59.1956 68.4414C56.5608 69.0916 53.8979 67.4829 53.2477 64.8481C52.5974 62.2134 54.2062 59.5504 56.841 58.9002C59.4757 58.25 62.1386 59.8588 62.7889 62.4935Z" fill="#129DFF"/>
<path fill-rule="evenodd" clip-rule="evenodd" d="M55.9079 22.0063L55.1059 22.2042L55.1488 23.0291L55.1882 23.7867L55.2889 26.0455C54.7884 26.4486 54.321 26.9088 53.886 27.4235L51.5982 27.2183L51.5874 27.2173L51.5766 27.2166L50.8226 27.1654L50.0181 27.1108L49.7942 27.8855L48.3546 32.8669L48.1271 33.6541L48.8542 34.0319L51.4687 35.3904C51.5009 35.7964 51.5478 36.1507 51.6171 36.4317C51.6865 36.7127 51.8098 37.048 51.9701 37.4224L50.2878 39.8413L49.82 40.514L50.3876 41.105L53.9794 44.8448L54.538 45.4263L55.2248 45.0037L55.8684 44.6077L55.8776 44.602L55.8867 44.5961L57.8164 43.3501C58.4406 43.6032 59.0681 43.793 59.6983 43.9169L60.9811 46.6577L61.3292 47.4014L62.1264 47.2047L67.1579 45.963L67.9551 45.7663L67.9172 44.946L67.7777 41.9231C68.2779 41.5202 68.745 41.0602 69.1798 40.5458L71.4676 40.751L71.4784 40.752L71.4892 40.7527L72.2432 40.8039L73.0477 40.8585L73.2716 40.0838L74.7112 35.1023L74.9387 34.3152L74.2116 33.9374L71.5971 32.5788C71.5648 32.1728 71.518 31.8186 71.4486 31.5376C71.3793 31.2566 71.256 30.9213 71.0957 30.5468L72.7779 28.128L73.2458 27.4553L72.6782 26.8643L69.0863 23.1245L68.5278 22.5429L67.841 22.9656L67.1974 23.3616L67.1881 23.3673L67.179 23.3732L65.2494 24.6192C64.6252 24.3661 63.9977 24.1763 63.3675 24.0523L62.0847 21.3116L61.7366 20.5679L60.9394 20.7646L55.9079 22.0063ZM56.3113 26.525L56.1871 23.7384L56.1475 22.9771L61.179 21.7355L62.6845 24.9522C63.564 25.0712 64.45 25.3369 65.3426 25.7493L67.7215 24.2133L68.3651 23.8172L71.957 27.557L69.9651 30.421L70.0552 30.6656C70.2725 31.1458 70.4134 31.5163 70.4778 31.7772C70.5421 32.0381 70.5898 32.4316 70.6208 32.9578L70.655 33.2162L73.7505 34.8247L72.3109 39.8062L71.5569 39.755L68.7365 39.5021C68.1383 40.2823 67.4776 40.9298 66.7545 41.4443L66.9183 44.9921L61.8868 46.2338L60.3813 43.0171C59.5018 42.8981 58.6157 42.6323 57.7232 42.22L55.3443 43.756L54.7007 44.1521L51.1088 40.4123L53.1006 37.5483L53.0106 37.3037C52.7933 36.8235 52.6524 36.453 52.588 36.1921C52.5236 35.9312 52.4759 35.5377 52.4449 35.0115L52.4108 34.7531L49.3153 33.1446L50.7549 28.1631L51.5089 28.2143L54.3292 28.4672C54.9275 27.6869 55.5882 27.0395 56.3113 26.525ZM65.2599 33.1281C65.7778 35.2267 64.4964 37.3477 62.3979 37.8656C60.2993 38.3834 58.1783 37.1021 57.6604 35.0035C57.1425 32.905 58.4239 30.784 60.5224 30.2661C62.621 29.7482 64.742 31.0296 65.2599 33.1281ZM66.2307 32.8885C66.881 35.5233 65.2722 38.1862 62.6374 38.8364C60.0027 39.4866 57.3398 37.8779 56.6895 35.2431C56.0393 32.6084 57.6481 29.9454 60.2828 29.2952C62.9176 28.645 65.5805 30.2538 66.2307 32.8885Z" fill="#129DFF"/>
</svg>
