<svg width="100" height="100" viewBox="0 0 100 100" fill="none" xmlns="http://www.w3.org/2000/svg">
<circle cx="50" cy="50" r="50" fill="#1199FA" fill-opacity="0.1"/>
<path d="M25.5 35C25.5 33.067 27.067 31.5 29 31.5H71C72.933 31.5 74.5 33.067 74.5 35V63C74.5 64.933 72.933 66.5 71 66.5H29C27.067 66.5 25.5 64.933 25.5 63V35Z" stroke="#129DFF"/>
<line x1="25" y1="37.5" x2="75" y2="37.5" stroke="#129DFF"/>
<path d="M35.0615 52.6094L41.9521 55.6514V54.4824L36.1484 52.0078L41.9521 49.54V48.4121L35.0615 51.4541V52.6094Z" fill="#129DFF"/>
<path d="M51.1328 45.7051H49.9844L46.8672 58.4609H48.0156L51.1328 45.7051Z" fill="#129DFF"/>
<path d="M62.9385 51.4541L56.0479 48.4121V49.5811L61.8516 52.0488L56.0479 54.5234V55.6514L62.9385 52.6094V51.4541Z" fill="#129DFF"/>
</svg>
